PathFileType	4	(X/Y/Z)	Patient4_TMGait_0pt7_01_left_36.trc.trc
DataRate	CameraRate	NumFrames	NumMarkers	Units	OrigDataRate	OrigDataStartFrame	OrigNumFrames
84.337349397591	84.337349397591	4	33	mm	84.337349397591	53	       141
Frame#	Time	Sacral			L.Shoulder			Chest			R.Shoulder			Neck			R.ASIS			L.ASIS			R.Thigh.Superior			R.Thigh.Lateral			R.Thigh.Inferior			R.Patella			L.Thigh.Superior			L.Thigh.Lateral			L.Thigh.Inferior			L.Patella			L.Shank.Superior			L.Shank.Lateral			L.Shank.Inferior			R.Shank.Superior			R.Shank.Lateral			R.Shank.Inferior			R.Heel			R.Midfoot.Superior			R.Midfoot.Lateral			R.Toe			L.Heel			L.Midfoot.Lateral			L.Midfoot.Superior			L.Toe			L.Elbow			L.Wrist			R.Elbow			R.Wrist			
		X1	Y1	Z1	X2	Y2	Z2	X3	Y3	Z3	X4	Y4	Z4	X5	Y5	Z5	X6	Y6	Z6	X7	Y7	Z7	X8	Y8	Z8	X9	Y9	Z9	X10	Y10	Z10	X11	Y11	Z11	X12	Y12	Z12	X13	Y13	Z13	X14	Y14	Z14	X15	Y15	Z15	X16	Y16	Z16	X17	Y17	Z17	X18	Y18	Z18	X19	Y19	Z19	X20	Y20	Z20	X21	Y21	Z21	X22	Y22	Z22	X23	Y23	Z23	X24	Y24	Z24	X25	Y25	Z25	X26	Y26	Z26	X27	Y27	Z27	X28	Y28	Z28	X29	Y29	Z29	X30	Y30	Z30	X31	Y31	Z31	X32	Y32	Z32	X33	Y33	Z33	

53	42.176571428571	847.025894853834	1014.764660129827	454.499970231225	1048.513834461136	1440.813610438463	295.435984916202	1143.400148180556	1360.708189938807	457.564633495569	1056.005391115557	1436.277387466149	629.946129556190	1052.832011379714	1496.207174727435	452.753680331161	1064.612314767398	946.014257654705	583.704365722273	1070.970544169927	963.437161957417	309.324362512279	1139.401320350596	770.222545736746	560.802757909274	1092.530838858315	652.978766337023	635.145724138747	1182.662519848461	607.546157091506	559.334558638229	1193.701114910565	492.752153717695	583.888101209312	1115.313421060817	753.006854421334	349.339892110820	1027.964838560127	636.593879102708	285.496887675714	1104.160216652408	558.565261174546	358.047878389163	1103.209280730480	488.138244709680	369.520174247246	1073.125405576356	415.685905519586	359.234352017970	982.318678007008	305.011630897180	303.353114255602	1020.691987793985	192.509696865893	379.339121991852	1108.978573833757	425.503758936651	591.301069131552	981.396186358274	403.891348416389	648.089570423893	956.413710597462	294.695449959646	603.537126590381	758.297061549990	276.081431755870	569.083608451179	899.010525870797	166.015336731437	614.825478115554	790.201551565841	195.463173716405	639.689382516828	924.207377488851	35.442911600592	632.570115918450	884.064765315982	39.020480755937	411.757386180883	962.439371161600	36.467399096708	335.323708236518	1044.513678061106	96.494797824195	367.733001959731	1174.412304081166	40.796972801483	345.604502357993	1006.170612290203	1120.590761707504	125.346980930193	1202.645917989702	961.761726394185	179.188205299586	983.054441293812	1102.587904406344	753.672057803811	1190.231192892536	950.450449890703	768.486697011290	
54	42.188428571429	845.761434736482	1015.088337670249	452.948420222396	1049.439969936602	1441.151279497980	294.428870647694	1142.791134833368	1360.940597523784	457.339665197177	1054.079758821400	1436.784591279518	628.851087827833	1052.512320092058	1496.553319058364	451.787258592917	1062.815854585443	947.080215074102	583.571124899037	1070.893038846532	963.890374408659	308.828377070354	1141.788055150420	775.772207280642	559.882554169498	1099.037005710973	657.449539368260	634.675327616065	1190.526874566755	614.772793784325	558.808188831244	1205.211886493069	500.043826092776	583.424679409948	1112.638580410090	751.968204336346	349.189422672058	1023.977401360211	636.623541016053	284.964112443972	1098.742276802437	557.722569646045	357.931361977437	1096.813437946105	487.387554536349	369.450904473899	1066.564476776388	415.247562450693	358.980906480999	975.279745173938	305.007108971107	303.042426433372	1012.949257325613	192.350782371177	379.182711278017	1121.948737300660	430.790782033542	590.571704869773	994.479208304179	405.982394301591	646.138498969992	972.737991765914	296.122626933269	601.659940810179	775.254369395021	271.115318814813	565.218479534034	918.987624452637	166.929448417969	613.251618957452	809.363081842883	192.804613153630	637.117580303988	948.268986680868	37.546636945802	632.907690770285	875.693866442034	39.097501657609	411.640035846186	954.096996825957	36.460618424662	335.244929371403	1036.223411051459	96.516635866315	367.578139571256	1166.070273831419	40.736543942561	345.507058236372	1015.034518265674	1120.837720668699	123.241551456390	1220.278634855885	976.471900258869	181.717146838890	977.233479633325	1102.041147951489	749.619070940644	1171.620565656524	933.876207880858	772.716709401523	
55	42.200285714286	844.503043684634	1015.424458939231	451.504389873044	1050.480208895596	1441.494024738448	293.526573115164	1142.204609962711	1361.156943723194	457.243465182870	1052.140894639616	1437.284553770820	627.844953272044	1052.218802893831	1496.892271210958	450.901582118337	1061.025215864266	948.181651802304	583.578698763320	1070.658061940680	964.195880049887	308.452110037925	1143.759478066798	781.276130247706	559.307763758314	1104.801815893608	661.957136832697	634.333632144396	1197.584747661025	621.980977951092	558.524167318402	1215.823533686663	507.569612564075	583.234267409389	1109.876082947840	750.901176631382	349.216668726547	1020.000370581241	636.649559391359	284.522678429574	1093.317935487679	556.875301936191	357.893693074319	1090.408862729594	486.656394988785	369.446141220406	1060.017025089981	414.829388727769	358.799852011868	968.284038213019	305.032035593938	302.760301324159	1005.209364892347	192.217655744498	379.046928963460	1134.470075429069	436.023971316184	590.046175675848	1007.361590321981	407.070811433478	644.272474991681	989.753948516978	296.493228281261	599.883991585886	793.232606700995	263.277922308962	561.276794880602	940.718839220487	166.641315492343	611.762898064503	830.180961463927	187.822630033920	634.579135445419	975.437427614634	39.417032910853	633.564920260262	867.326670123438	39.209813656936	411.505015241595	945.765946082108	36.468572632055	335.170380232300	1027.951517813455	96.546907084283	367.425383433913	1157.736540293587	40.669588987497	345.421249011065	1023.859705784976	1121.125920059625	121.619193342356	1236.764854878188	991.525476797663	184.504294663219	971.944764126465	1101.583993543080	746.150566608277	1152.000079844481	918.291565950643	776.241502184036	
56	42.212142857143	843.259738719703	1015.757494162922	450.172581491937	1051.596326345404	1441.812316895455	292.733329261984	1141.643558476902	1361.346798104594	457.270910644763	1050.211184326945	1437.763906456410	626.932556378350	1051.942402020786	1497.205596462103	450.095260590865	1059.256236149803	949.269340200475	583.708990653198	1070.220148989748	964.322879181945	308.209867542538	1145.325742962264	786.602726902904	559.013839347453	1109.831237509191	666.338553944983	634.095213406805	1203.794036920605	628.960177153522	558.413205157710	1225.437579255572	515.119448301312	583.258987683352	1107.050596309869	749.811377738909	349.414978523722	1016.058358116258	636.675562246880	284.155769054240	1087.905954104012	556.025209316420	357.922560176262	1084.021583182385	485.949314401364	369.485092403784	1053.498657407167	414.429747237476	358.674061826112	961.338557320330	305.086285079661	302.497937206941	997.483741396520	192.109057225993	378.922792407059	1146.442505815462	441.061415450043	589.692664696293	1020.050335485617	407.112099226093	642.562356430368	1007.369707016505	295.858671512691	598.276418820801	812.319732116127	252.922227504903	557.471932579681	963.991778998683	165.276814629278	610.452178950844	852.576903406760	180.830941769101	632.236920862285	1005.199510177594	41.057759577804	634.579660840150	858.968736442875	39.366380813602	411.347420597421	937.448774141774	36.495502564134	335.096779388195	1019.701622867401	96.585619757036	367.273341096568	1149.412464675890	40.596198579638	345.345647405956	1032.650761173797	1121.411803100354	120.461775045368	1252.089522665006	1006.701163779446	187.497573604902	967.171887092187	1101.239080401618	743.268864579314	1131.663339349955	903.896849399235	778.891195531247	
